<mxfile host="app.diagrams.net" agent="Mozilla/5.0 (Windows NT 10.0; Win64; x64) AppleWebKit/537.36 (KHTML, like Gecko) Chrome/136.0.0.0 Safari/537.36" version="27.0.8" pages="5">
  <diagram name="Bundle Flexível" id="kXkVYsWf9OJHEGPrg3_8">
    <mxGraphModel dx="1050" dy="522" grid="1" gridSize="10" guides="1" tooltips="1" connect="1" arrows="1" fold="1" page="1" pageScale="1" pageWidth="827" pageHeight="1169" math="0" shadow="0">
      <root>
        <mxCell id="0" />
        <mxCell id="1" parent="0" />
        <mxCell id="wwhrSut1Y8ac9y-j0grS-16" style="edgeStyle=orthogonalEdgeStyle;rounded=0;orthogonalLoop=1;jettySize=auto;html=1;entryX=0.5;entryY=0;entryDx=0;entryDy=0;" parent="1" source="wwhrSut1Y8ac9y-j0grS-4" target="wwhrSut1Y8ac9y-j0grS-15" edge="1">
          <mxGeometry relative="1" as="geometry" />
        </mxCell>
        <mxCell id="vX29ukWN0PYe6CE-qSUL-2" value="(CID+Contrato+OTT)" style="edgeLabel;html=1;align=center;verticalAlign=middle;resizable=0;points=[];" parent="wwhrSut1Y8ac9y-j0grS-16" vertex="1" connectable="0">
          <mxGeometry x="-0.21" y="-2" relative="1" as="geometry">
            <mxPoint as="offset" />
          </mxGeometry>
        </mxCell>
        <mxCell id="wwhrSut1Y8ac9y-j0grS-4" value="Digital/Ouvidoria" style="rounded=1;whiteSpace=wrap;html=1;" parent="1" vertex="1">
          <mxGeometry x="420" y="20" width="120" height="60" as="geometry" />
        </mxCell>
        <mxCell id="wwhrSut1Y8ac9y-j0grS-10" value="Novo MS Contrata OTT" style="rounded=1;whiteSpace=wrap;html=1;fillColor=#fff2cc;strokeColor=#d6b656;" parent="1" vertex="1">
          <mxGeometry x="184" y="180" width="80" height="60" as="geometry" />
        </mxCell>
        <mxCell id="wwhrSut1Y8ac9y-j0grS-11" value="Novo MS Elegibilidade" style="rounded=1;whiteSpace=wrap;html=1;fillColor=#fff2cc;strokeColor=#d6b656;" parent="1" vertex="1">
          <mxGeometry x="320" y="180" width="80" height="60" as="geometry" />
        </mxCell>
        <mxCell id="wwhrSut1Y8ac9y-j0grS-17" style="edgeStyle=orthogonalEdgeStyle;rounded=0;orthogonalLoop=1;jettySize=auto;html=1;entryX=0.5;entryY=0;entryDx=0;entryDy=0;" parent="1" source="wwhrSut1Y8ac9y-j0grS-15" target="wwhrSut1Y8ac9y-j0grS-10" edge="1">
          <mxGeometry relative="1" as="geometry" />
        </mxCell>
        <mxCell id="wwhrSut1Y8ac9y-j0grS-18" style="edgeStyle=orthogonalEdgeStyle;rounded=0;orthogonalLoop=1;jettySize=auto;html=1;entryX=0.5;entryY=0;entryDx=0;entryDy=0;" parent="1" source="wwhrSut1Y8ac9y-j0grS-15" target="wwhrSut1Y8ac9y-j0grS-11" edge="1">
          <mxGeometry relative="1" as="geometry" />
        </mxCell>
        <mxCell id="wwhrSut1Y8ac9y-j0grS-15" value="APIGEE" style="rounded=0;whiteSpace=wrap;html=1;" parent="1" vertex="1">
          <mxGeometry x="190" y="120" width="580" height="20" as="geometry" />
        </mxCell>
        <mxCell id="wwhrSut1Y8ac9y-j0grS-21" value="&lt;b&gt;NETSMS&lt;/b&gt;" style="shape=cylinder3;whiteSpace=wrap;html=1;boundedLbl=1;backgroundOutline=1;size=15;align=center;verticalAlign=top;" parent="1" vertex="1">
          <mxGeometry x="79" y="340" width="561" height="160" as="geometry" />
        </mxCell>
        <mxCell id="wwhrSut1Y8ac9y-j0grS-29" style="edgeStyle=orthogonalEdgeStyle;rounded=0;orthogonalLoop=1;jettySize=auto;html=1;entryX=0.25;entryY=1;entryDx=0;entryDy=0;exitX=0;exitY=0;exitDx=0;exitDy=40;exitPerimeter=0;" parent="1" source="wwhrSut1Y8ac9y-j0grS-22" target="wwhrSut1Y8ac9y-j0grS-28" edge="1">
          <mxGeometry relative="1" as="geometry" />
        </mxCell>
        <mxCell id="wwhrSut1Y8ac9y-j0grS-30" value="Evento 19&amp;nbsp;&lt;div&gt;(Assíncrono)&lt;/div&gt;" style="edgeLabel;html=1;align=center;verticalAlign=middle;resizable=0;points=[];" parent="wwhrSut1Y8ac9y-j0grS-29" vertex="1" connectable="0">
          <mxGeometry x="0.1591" relative="1" as="geometry">
            <mxPoint y="-47" as="offset" />
          </mxGeometry>
        </mxCell>
        <mxCell id="wwhrSut1Y8ac9y-j0grS-33" style="edgeStyle=orthogonalEdgeStyle;rounded=0;orthogonalLoop=1;jettySize=auto;html=1;entryX=0.75;entryY=1;entryDx=0;entryDy=0;exitX=0;exitY=0;exitDx=130;exitDy=50;exitPerimeter=0;" parent="1" source="wwhrSut1Y8ac9y-j0grS-22" target="wwhrSut1Y8ac9y-j0grS-10" edge="1">
          <mxGeometry relative="1" as="geometry">
            <Array as="points">
              <mxPoint x="244" y="447" />
            </Array>
          </mxGeometry>
        </mxCell>
        <mxCell id="wwhrSut1Y8ac9y-j0grS-34" value="Produto contratado&amp;nbsp;&lt;div&gt;OK/NOK&lt;/div&gt;" style="edgeLabel;html=1;align=center;verticalAlign=middle;resizable=0;points=[];" parent="wwhrSut1Y8ac9y-j0grS-33" vertex="1" connectable="0">
          <mxGeometry x="0.5807" y="3" relative="1" as="geometry">
            <mxPoint x="-12" y="-16" as="offset" />
          </mxGeometry>
        </mxCell>
        <mxCell id="wwhrSut1Y8ac9y-j0grS-22" value="Package Nova" style="shape=folder;fontStyle=1;tabWidth=110;tabHeight=30;tabPosition=left;html=1;boundedLbl=1;labelInHeader=1;container=1;collapsible=0;whiteSpace=wrap;verticalAlign=middle;fillColor=#fff2cc;strokeColor=#d6b656;" parent="1" vertex="1">
          <mxGeometry x="99" y="397" width="130" height="93" as="geometry" />
        </mxCell>
        <mxCell id="wwhrSut1Y8ac9y-j0grS-23" value="Inclui Produto Contrato&lt;div&gt;&lt;font style=&quot;color: rgb(255, 0, 0);&quot;&gt;*Nova RN: persiste validade de troca de SVA/OTT&lt;/font&gt;&lt;/div&gt;" style="html=1;strokeColor=none;resizeWidth=1;resizeHeight=1;fillColor=none;part=1;connectable=0;allowArrows=0;deletable=0;whiteSpace=wrap;" parent="wwhrSut1Y8ac9y-j0grS-22" vertex="1">
          <mxGeometry width="130" height="65.1" relative="1" as="geometry">
            <mxPoint y="30" as="offset" />
          </mxGeometry>
        </mxCell>
        <mxCell id="wwhrSut1Y8ac9y-j0grS-37" style="edgeStyle=orthogonalEdgeStyle;rounded=0;orthogonalLoop=1;jettySize=auto;html=1;entryX=1;entryY=0.5;entryDx=0;entryDy=0;exitX=0;exitY=0;exitDx=130;exitDy=50;exitPerimeter=0;" parent="1" source="wwhrSut1Y8ac9y-j0grS-24" target="wwhrSut1Y8ac9y-j0grS-11" edge="1">
          <mxGeometry relative="1" as="geometry">
            <Array as="points">
              <mxPoint x="440" y="447" />
              <mxPoint x="440" y="210" />
            </Array>
          </mxGeometry>
        </mxCell>
        <mxCell id="wwhrSut1Y8ac9y-j0grS-38" value="Contrato&amp;nbsp;&lt;div&gt;OK/NOK&lt;/div&gt;" style="edgeLabel;html=1;align=center;verticalAlign=middle;resizable=0;points=[];" parent="wwhrSut1Y8ac9y-j0grS-37" vertex="1" connectable="0">
          <mxGeometry x="0.2157" y="2" relative="1" as="geometry">
            <mxPoint x="-8" y="27" as="offset" />
          </mxGeometry>
        </mxCell>
        <mxCell id="wwhrSut1Y8ac9y-j0grS-24" value="Package Nova" style="shape=folder;fontStyle=1;tabWidth=110;tabHeight=30;tabPosition=left;html=1;boundedLbl=1;labelInHeader=1;container=1;collapsible=0;whiteSpace=wrap;verticalAlign=middle;fillColor=#fff2cc;strokeColor=#d6b656;" parent="1" vertex="1">
          <mxGeometry x="300" y="397" width="130" height="70" as="geometry" />
        </mxCell>
        <mxCell id="wwhrSut1Y8ac9y-j0grS-25" value="RN validação contrato" style="html=1;strokeColor=none;resizeWidth=1;resizeHeight=1;fillColor=none;part=1;connectable=0;allowArrows=0;deletable=0;whiteSpace=wrap;" parent="wwhrSut1Y8ac9y-j0grS-24" vertex="1">
          <mxGeometry width="130" height="49" relative="1" as="geometry">
            <mxPoint y="30" as="offset" />
          </mxGeometry>
        </mxCell>
        <mxCell id="wwhrSut1Y8ac9y-j0grS-28" value="STW" style="rounded=1;whiteSpace=wrap;html=1;" parent="1" vertex="1">
          <mxGeometry x="20" y="220" width="120" height="60" as="geometry" />
        </mxCell>
        <mxCell id="wwhrSut1Y8ac9y-j0grS-31" style="edgeStyle=orthogonalEdgeStyle;rounded=0;orthogonalLoop=1;jettySize=auto;html=1;entryX=0;entryY=0;entryDx=55;entryDy=0;entryPerimeter=0;" parent="1" source="wwhrSut1Y8ac9y-j0grS-10" target="wwhrSut1Y8ac9y-j0grS-22" edge="1">
          <mxGeometry relative="1" as="geometry">
            <Array as="points">
              <mxPoint x="154" y="210" />
            </Array>
          </mxGeometry>
        </mxCell>
        <mxCell id="wwhrSut1Y8ac9y-j0grS-32" value="Contrata&amp;nbsp;&lt;div&gt;Produto&lt;/div&gt;" style="edgeLabel;html=1;align=center;verticalAlign=middle;resizable=0;points=[];" parent="wwhrSut1Y8ac9y-j0grS-31" vertex="1" connectable="0">
          <mxGeometry x="-0.0111" y="1" relative="1" as="geometry">
            <mxPoint y="13" as="offset" />
          </mxGeometry>
        </mxCell>
        <mxCell id="wwhrSut1Y8ac9y-j0grS-35" style="edgeStyle=orthogonalEdgeStyle;rounded=0;orthogonalLoop=1;jettySize=auto;html=1;exitX=0;exitY=0.5;exitDx=0;exitDy=0;entryX=0;entryY=0;entryDx=0;entryDy=40;entryPerimeter=0;" parent="1" source="wwhrSut1Y8ac9y-j0grS-11" target="wwhrSut1Y8ac9y-j0grS-24" edge="1">
          <mxGeometry relative="1" as="geometry">
            <mxPoint x="360" y="440" as="targetPoint" />
            <Array as="points">
              <mxPoint x="290" y="210" />
              <mxPoint x="290" y="437" />
            </Array>
          </mxGeometry>
        </mxCell>
        <mxCell id="wwhrSut1Y8ac9y-j0grS-36" value="&lt;div&gt;(CID+Contrato)&lt;/div&gt;" style="edgeLabel;html=1;align=center;verticalAlign=middle;resizable=0;points=[];" parent="wwhrSut1Y8ac9y-j0grS-35" vertex="1" connectable="0">
          <mxGeometry x="-0.0047" y="5" relative="1" as="geometry">
            <mxPoint x="5" y="-3" as="offset" />
          </mxGeometry>
        </mxCell>
        <mxCell id="wwhrSut1Y8ac9y-j0grS-51" value="1" style="ellipse;whiteSpace=wrap;html=1;aspect=fixed;fontStyle=1" parent="1" vertex="1">
          <mxGeometry x="410" y="180" width="20" height="20" as="geometry" />
        </mxCell>
        <mxCell id="wwhrSut1Y8ac9y-j0grS-53" value="2" style="ellipse;whiteSpace=wrap;html=1;aspect=fixed;fontStyle=1" parent="1" vertex="1">
          <mxGeometry x="270" y="180" width="20" height="20" as="geometry" />
        </mxCell>
        <mxCell id="vX29ukWN0PYe6CE-qSUL-1" value="&lt;h1 style=&quot;margin-top: 0px;&quot;&gt;Premissas&lt;/h1&gt;&lt;p&gt;- Reuso de 2 Microsserviços propostos na solução de OTT NETFLIX&lt;/p&gt;&lt;p&gt;- Regra validação de troca de SVA/OTT deve ser aplicada no front, antes de chamar a API.(Catálogo vai ter informação de qual SVA/OTT pode ser trocado pelo Cliente).&lt;/p&gt;" style="text;html=1;whiteSpace=wrap;overflow=hidden;rounded=0;strokeColor=#d6b656;fillColor=#fff2cc;sketch=1;curveFitting=1;jiggle=2;" parent="1" vertex="1">
          <mxGeometry x="520" y="160" width="250" height="150" as="geometry" />
        </mxCell>
      </root>
    </mxGraphModel>
  </diagram>
  <diagram id="VxzHsnYchzPlDSUpDS2J" name="v2">
    <mxGraphModel dx="1050" dy="522" grid="1" gridSize="10" guides="1" tooltips="1" connect="1" arrows="1" fold="1" page="1" pageScale="1" pageWidth="827" pageHeight="1169" math="0" shadow="0">
      <root>
        <mxCell id="0" />
        <mxCell id="1" parent="0" />
        <mxCell id="4kUn2K6fRLzkgsQiHmRe-1" style="edgeStyle=orthogonalEdgeStyle;rounded=0;orthogonalLoop=1;jettySize=auto;html=1;entryX=0.5;entryY=0;entryDx=0;entryDy=0;" edge="1" parent="1" source="4kUn2K6fRLzkgsQiHmRe-3" target="4kUn2K6fRLzkgsQiHmRe-8">
          <mxGeometry relative="1" as="geometry" />
        </mxCell>
        <mxCell id="4kUn2K6fRLzkgsQiHmRe-2" value="payload nova API&amp;nbsp;&lt;div&gt;Venda Base Solar&lt;/div&gt;" style="edgeLabel;html=1;align=center;verticalAlign=middle;resizable=0;points=[];" vertex="1" connectable="0" parent="4kUn2K6fRLzkgsQiHmRe-1">
          <mxGeometry x="-0.21" y="-2" relative="1" as="geometry">
            <mxPoint as="offset" />
          </mxGeometry>
        </mxCell>
        <mxCell id="4kUn2K6fRLzkgsQiHmRe-3" value="OM (SOLAR)" style="rounded=1;whiteSpace=wrap;html=1;" vertex="1" parent="1">
          <mxGeometry x="354" y="20" width="120" height="60" as="geometry" />
        </mxCell>
        <mxCell id="4kUn2K6fRLzkgsQiHmRe-5" value="MS VENDA BASE SOLAR" style="rounded=1;whiteSpace=wrap;html=1;fillColor=#fff2cc;strokeColor=#d6b656;" vertex="1" parent="1">
          <mxGeometry x="374" y="180" width="80" height="60" as="geometry" />
        </mxCell>
        <mxCell id="4kUn2K6fRLzkgsQiHmRe-7" style="edgeStyle=orthogonalEdgeStyle;rounded=0;orthogonalLoop=1;jettySize=auto;html=1;entryX=0.5;entryY=0;entryDx=0;entryDy=0;" edge="1" parent="1" source="4kUn2K6fRLzkgsQiHmRe-8" target="4kUn2K6fRLzkgsQiHmRe-5">
          <mxGeometry relative="1" as="geometry" />
        </mxCell>
        <mxCell id="4kUn2K6fRLzkgsQiHmRe-8" value="APIGEE" style="rounded=0;whiteSpace=wrap;html=1;" vertex="1" parent="1">
          <mxGeometry x="359" y="140" width="110" height="20" as="geometry" />
        </mxCell>
        <mxCell id="4kUn2K6fRLzkgsQiHmRe-32" style="edgeStyle=orthogonalEdgeStyle;rounded=0;orthogonalLoop=1;jettySize=auto;html=1;entryX=0.5;entryY=1;entryDx=0;entryDy=0;exitX=0.657;exitY=-0.008;exitDx=0;exitDy=0;exitPerimeter=0;" edge="1" parent="1" source="4kUn2K6fRLzkgsQiHmRe-9" target="4kUn2K6fRLzkgsQiHmRe-5">
          <mxGeometry relative="1" as="geometry" />
        </mxCell>
        <mxCell id="4kUn2K6fRLzkgsQiHmRe-33" value="Confirmação/Erro" style="edgeLabel;html=1;align=center;verticalAlign=middle;resizable=0;points=[];" vertex="1" connectable="0" parent="4kUn2K6fRLzkgsQiHmRe-32">
          <mxGeometry x="-0.2318" y="2" relative="1" as="geometry">
            <mxPoint x="-19" y="22" as="offset" />
          </mxGeometry>
        </mxCell>
        <mxCell id="4kUn2K6fRLzkgsQiHmRe-9" value="&lt;b&gt;NETSMS (7 bases)&lt;/b&gt;" style="shape=cylinder3;whiteSpace=wrap;html=1;boundedLbl=1;backgroundOutline=1;size=15;align=center;verticalAlign=top;" vertex="1" parent="1">
          <mxGeometry x="50" y="320" width="440" height="80" as="geometry" />
        </mxCell>
        <mxCell id="4kUn2K6fRLzkgsQiHmRe-27" value="&lt;h1 style=&quot;margin-top: 0px;&quot;&gt;Premissas&lt;/h1&gt;&lt;p&gt;- Alteração somente em jornada Venda base Solar (Reuso de API Venda Base);&lt;/p&gt;&lt;p&gt;- OM terá regra de quais SVAs/OTTs podem ser substituídos;&lt;/p&gt;&lt;p&gt;- API deve persistir essa substituição numa matriz (nova tabela) do FEPP replicada na base NETSMS;&lt;/p&gt;&lt;p&gt;- Registrar alteração/substituição nas ocorrências do contrato;&lt;/p&gt;&lt;p&gt;- Avaliar necessidade de nova solic STW;&lt;/p&gt;&lt;p&gt;- Avaliar impactos em JOBs, consultas, proc, etc, que utilizam estrutura de produto SVA/OTT;&lt;/p&gt;&lt;p&gt;&lt;br&gt;&lt;/p&gt;" style="text;html=1;whiteSpace=wrap;overflow=hidden;rounded=0;strokeColor=#d6b656;fillColor=#fff2cc;sketch=1;curveFitting=1;jiggle=2;" vertex="1" parent="1">
          <mxGeometry x="510" y="30" width="310" height="290" as="geometry" />
        </mxCell>
        <mxCell id="4kUn2K6fRLzkgsQiHmRe-29" style="edgeStyle=orthogonalEdgeStyle;rounded=0;orthogonalLoop=1;jettySize=auto;html=1;entryX=0;entryY=0.5;entryDx=0;entryDy=0;" edge="1" parent="1" source="4kUn2K6fRLzkgsQiHmRe-28" target="4kUn2K6fRLzkgsQiHmRe-3">
          <mxGeometry relative="1" as="geometry" />
        </mxCell>
        <mxCell id="4kUn2K6fRLzkgsQiHmRe-28" value="Ouvidoria, Claro Store, outros" style="rounded=1;whiteSpace=wrap;html=1;" vertex="1" parent="1">
          <mxGeometry x="20" y="20" width="120" height="60" as="geometry" />
        </mxCell>
        <mxCell id="4kUn2K6fRLzkgsQiHmRe-30" style="edgeStyle=orthogonalEdgeStyle;rounded=0;orthogonalLoop=1;jettySize=auto;html=1;entryX=0.5;entryY=0;entryDx=0;entryDy=0;entryPerimeter=0;exitX=0;exitY=0.5;exitDx=0;exitDy=0;" edge="1" parent="1" source="4kUn2K6fRLzkgsQiHmRe-5" target="4kUn2K6fRLzkgsQiHmRe-9">
          <mxGeometry relative="1" as="geometry">
            <Array as="points">
              <mxPoint x="270" y="210" />
            </Array>
          </mxGeometry>
        </mxCell>
        <mxCell id="4kUn2K6fRLzkgsQiHmRe-31" value="Substituição de SVA/OTT" style="edgeLabel;html=1;align=center;verticalAlign=middle;resizable=0;points=[];" vertex="1" connectable="0" parent="4kUn2K6fRLzkgsQiHmRe-30">
          <mxGeometry x="0.2431" y="-1" relative="1" as="geometry">
            <mxPoint x="21" y="1" as="offset" />
          </mxGeometry>
        </mxCell>
        <mxCell id="4kUn2K6fRLzkgsQiHmRe-35" value="JOBS" style="rounded=1;whiteSpace=wrap;html=1;fillColor=#fff2cc;strokeColor=#d6b656;" vertex="1" parent="1">
          <mxGeometry x="74" y="180" width="80" height="60" as="geometry" />
        </mxCell>
        <mxCell id="4kUn2K6fRLzkgsQiHmRe-36" style="edgeStyle=orthogonalEdgeStyle;rounded=0;orthogonalLoop=1;jettySize=auto;html=1;entryX=0.145;entryY=0;entryDx=0;entryDy=4.35;entryPerimeter=0;" edge="1" parent="1" source="4kUn2K6fRLzkgsQiHmRe-35" target="4kUn2K6fRLzkgsQiHmRe-9">
          <mxGeometry relative="1" as="geometry" />
        </mxCell>
      </root>
    </mxGraphModel>
  </diagram>
  <diagram name="v3" id="MrKG-tj15-6Qd36PAzrx">
    <mxGraphModel dx="954" dy="558" grid="1" gridSize="10" guides="1" tooltips="1" connect="1" arrows="1" fold="1" page="1" pageScale="1" pageWidth="827" pageHeight="1169" math="0" shadow="0">
      <root>
        <mxCell id="fxaZkKc_FLbqbJG7Qa_j-0" />
        <mxCell id="fxaZkKc_FLbqbJG7Qa_j-1" parent="fxaZkKc_FLbqbJG7Qa_j-0" />
        <mxCell id="fxaZkKc_FLbqbJG7Qa_j-2" style="edgeStyle=orthogonalEdgeStyle;rounded=0;orthogonalLoop=1;jettySize=auto;html=1;entryX=0;entryY=0.5;entryDx=0;entryDy=0;" edge="1" parent="fxaZkKc_FLbqbJG7Qa_j-1" source="fxaZkKc_FLbqbJG7Qa_j-4" target="AZNtR-9y9gJ_iq3rFAVb-1">
          <mxGeometry relative="1" as="geometry">
            <mxPoint x="414" y="140" as="targetPoint" />
          </mxGeometry>
        </mxCell>
        <mxCell id="fxaZkKc_FLbqbJG7Qa_j-4" value="OM (SOLAR)" style="rounded=1;whiteSpace=wrap;html=1;" vertex="1" parent="fxaZkKc_FLbqbJG7Qa_j-1">
          <mxGeometry x="190" y="20" width="120" height="60" as="geometry" />
        </mxCell>
        <mxCell id="AZNtR-9y9gJ_iq3rFAVb-6" style="edgeStyle=orthogonalEdgeStyle;rounded=0;orthogonalLoop=1;jettySize=auto;html=1;entryX=0;entryY=0.5;entryDx=0;entryDy=0;" edge="1" parent="fxaZkKc_FLbqbJG7Qa_j-1" source="fxaZkKc_FLbqbJG7Qa_j-5" target="AZNtR-9y9gJ_iq3rFAVb-4">
          <mxGeometry relative="1" as="geometry" />
        </mxCell>
        <mxCell id="AZNtR-9y9gJ_iq3rFAVb-8" value="Venda Base&lt;div&gt;AS-IS&lt;/div&gt;" style="edgeLabel;html=1;align=center;verticalAlign=middle;resizable=0;points=[];" vertex="1" connectable="0" parent="AZNtR-9y9gJ_iq3rFAVb-6">
          <mxGeometry x="-0.0727" y="-3" relative="1" as="geometry">
            <mxPoint as="offset" />
          </mxGeometry>
        </mxCell>
        <mxCell id="AZNtR-9y9gJ_iq3rFAVb-29" style="edgeStyle=orthogonalEdgeStyle;rounded=0;orthogonalLoop=1;jettySize=auto;html=1;" edge="1" parent="fxaZkKc_FLbqbJG7Qa_j-1" source="fxaZkKc_FLbqbJG7Qa_j-5" target="AZNtR-9y9gJ_iq3rFAVb-18">
          <mxGeometry relative="1" as="geometry">
            <Array as="points">
              <mxPoint x="590" y="100" />
              <mxPoint x="400" y="100" />
            </Array>
          </mxGeometry>
        </mxCell>
        <mxCell id="AZNtR-9y9gJ_iq3rFAVb-30" value="Adesão+Cancelamento&amp;nbsp;&lt;div&gt;SVA/OTT&lt;/div&gt;" style="edgeLabel;html=1;align=center;verticalAlign=middle;resizable=0;points=[];" vertex="1" connectable="0" parent="AZNtR-9y9gJ_iq3rFAVb-29">
          <mxGeometry x="-0.1565" relative="1" as="geometry">
            <mxPoint as="offset" />
          </mxGeometry>
        </mxCell>
        <mxCell id="fxaZkKc_FLbqbJG7Qa_j-5" value="MS VENDA BASE SOLAR" style="rounded=1;whiteSpace=wrap;html=1;fillColor=#fff2cc;strokeColor=#d6b656;" vertex="1" parent="fxaZkKc_FLbqbJG7Qa_j-1">
          <mxGeometry x="530" y="20" width="120" height="60" as="geometry" />
        </mxCell>
        <mxCell id="fxaZkKc_FLbqbJG7Qa_j-10" value="&lt;b&gt;NETSMS (7 bases)&lt;/b&gt;" style="shape=cylinder3;whiteSpace=wrap;html=1;boundedLbl=1;backgroundOutline=1;size=15;align=center;verticalAlign=top;" vertex="1" parent="fxaZkKc_FLbqbJG7Qa_j-1">
          <mxGeometry x="300" y="450" width="200" height="110" as="geometry" />
        </mxCell>
        <mxCell id="fxaZkKc_FLbqbJG7Qa_j-12" style="edgeStyle=orthogonalEdgeStyle;rounded=0;orthogonalLoop=1;jettySize=auto;html=1;entryX=0;entryY=0.5;entryDx=0;entryDy=0;" edge="1" parent="fxaZkKc_FLbqbJG7Qa_j-1" source="fxaZkKc_FLbqbJG7Qa_j-13" target="fxaZkKc_FLbqbJG7Qa_j-4">
          <mxGeometry relative="1" as="geometry" />
        </mxCell>
        <mxCell id="fxaZkKc_FLbqbJG7Qa_j-13" value="Ouvidoria, Claro Store, outros" style="rounded=1;whiteSpace=wrap;html=1;" vertex="1" parent="fxaZkKc_FLbqbJG7Qa_j-1">
          <mxGeometry x="20" y="20" width="120" height="60" as="geometry" />
        </mxCell>
        <mxCell id="AZNtR-9y9gJ_iq3rFAVb-47" style="edgeStyle=orthogonalEdgeStyle;rounded=0;orthogonalLoop=1;jettySize=auto;html=1;" edge="1" parent="fxaZkKc_FLbqbJG7Qa_j-1" source="fxaZkKc_FLbqbJG7Qa_j-16" target="fxaZkKc_FLbqbJG7Qa_j-10">
          <mxGeometry relative="1" as="geometry" />
        </mxCell>
        <mxCell id="fxaZkKc_FLbqbJG7Qa_j-16" value="JOBS" style="rounded=1;whiteSpace=wrap;html=1;fillColor=#fff2cc;strokeColor=#d6b656;" vertex="1" parent="fxaZkKc_FLbqbJG7Qa_j-1">
          <mxGeometry x="40" y="475" width="80" height="60" as="geometry" />
        </mxCell>
        <mxCell id="AZNtR-9y9gJ_iq3rFAVb-2" style="edgeStyle=orthogonalEdgeStyle;rounded=0;orthogonalLoop=1;jettySize=auto;html=1;entryX=0;entryY=0.5;entryDx=0;entryDy=0;" edge="1" parent="fxaZkKc_FLbqbJG7Qa_j-1" source="AZNtR-9y9gJ_iq3rFAVb-1" target="fxaZkKc_FLbqbJG7Qa_j-5">
          <mxGeometry relative="1" as="geometry" />
        </mxCell>
        <mxCell id="AZNtR-9y9gJ_iq3rFAVb-1" value="API VENDA BASE (Apigee)" style="rounded=1;whiteSpace=wrap;html=1;" vertex="1" parent="fxaZkKc_FLbqbJG7Qa_j-1">
          <mxGeometry x="370" y="20" width="120" height="60" as="geometry" />
        </mxCell>
        <mxCell id="AZNtR-9y9gJ_iq3rFAVb-4" value="" style="ellipse;whiteSpace=wrap;html=1;aspect=fixed;shadow=0;fillColor=#000000;" vertex="1" parent="fxaZkKc_FLbqbJG7Qa_j-1">
          <mxGeometry x="760" y="40" width="20" height="20" as="geometry" />
        </mxCell>
        <mxCell id="AZNtR-9y9gJ_iq3rFAVb-13" style="edgeStyle=orthogonalEdgeStyle;rounded=0;orthogonalLoop=1;jettySize=auto;html=1;entryX=0.5;entryY=0;entryDx=0;entryDy=0;" edge="1" parent="fxaZkKc_FLbqbJG7Qa_j-1" source="AZNtR-9y9gJ_iq3rFAVb-9" target="AZNtR-9y9gJ_iq3rFAVb-12">
          <mxGeometry relative="1" as="geometry">
            <Array as="points">
              <mxPoint x="600" y="300" />
              <mxPoint x="730" y="300" />
            </Array>
          </mxGeometry>
        </mxCell>
        <mxCell id="AZNtR-9y9gJ_iq3rFAVb-14" value="OC" style="edgeLabel;html=1;align=center;verticalAlign=middle;resizable=0;points=[];" vertex="1" connectable="0" parent="AZNtR-9y9gJ_iq3rFAVb-13">
          <mxGeometry x="0.1882" relative="1" as="geometry">
            <mxPoint x="15" as="offset" />
          </mxGeometry>
        </mxCell>
        <mxCell id="AZNtR-9y9gJ_iq3rFAVb-15" style="edgeStyle=orthogonalEdgeStyle;rounded=0;orthogonalLoop=1;jettySize=auto;html=1;entryX=0.5;entryY=0;entryDx=0;entryDy=0;" edge="1" parent="fxaZkKc_FLbqbJG7Qa_j-1" source="AZNtR-9y9gJ_iq3rFAVb-9" target="AZNtR-9y9gJ_iq3rFAVb-11">
          <mxGeometry relative="1" as="geometry">
            <Array as="points">
              <mxPoint x="600" y="300" />
              <mxPoint x="470" y="300" />
            </Array>
          </mxGeometry>
        </mxCell>
        <mxCell id="AZNtR-9y9gJ_iq3rFAVb-16" value="SOLIC&amp;nbsp;&lt;div&gt;adesão&lt;/div&gt;" style="edgeLabel;html=1;align=center;verticalAlign=middle;resizable=0;points=[];" vertex="1" connectable="0" parent="AZNtR-9y9gJ_iq3rFAVb-15">
          <mxGeometry x="-0.2267" y="2" relative="1" as="geometry">
            <mxPoint x="-42" as="offset" />
          </mxGeometry>
        </mxCell>
        <mxCell id="AZNtR-9y9gJ_iq3rFAVb-32" style="edgeStyle=orthogonalEdgeStyle;rounded=0;orthogonalLoop=1;jettySize=auto;html=1;entryX=0.5;entryY=0;entryDx=0;entryDy=0;" edge="1" parent="fxaZkKc_FLbqbJG7Qa_j-1" source="AZNtR-9y9gJ_iq3rFAVb-9" target="AZNtR-9y9gJ_iq3rFAVb-31">
          <mxGeometry relative="1" as="geometry" />
        </mxCell>
        <mxCell id="AZNtR-9y9gJ_iq3rFAVb-33" value="SOLIC cancelamento" style="edgeLabel;html=1;align=center;verticalAlign=middle;resizable=0;points=[];" vertex="1" connectable="0" parent="AZNtR-9y9gJ_iq3rFAVb-32">
          <mxGeometry x="0.1667" y="-2" relative="1" as="geometry">
            <mxPoint as="offset" />
          </mxGeometry>
        </mxCell>
        <mxCell id="AZNtR-9y9gJ_iq3rFAVb-9" value="MS ORCH Customer Order" style="rounded=1;whiteSpace=wrap;html=1;fillColor=#fff2cc;strokeColor=#d6b656;" vertex="1" parent="fxaZkKc_FLbqbJG7Qa_j-1">
          <mxGeometry x="540" y="220" width="120" height="60" as="geometry" />
        </mxCell>
        <mxCell id="AZNtR-9y9gJ_iq3rFAVb-11" value="MS Customer Order" style="rounded=1;whiteSpace=wrap;html=1;fillColor=#fff2cc;strokeColor=#d6b656;" vertex="1" parent="fxaZkKc_FLbqbJG7Qa_j-1">
          <mxGeometry x="410" y="340" width="120" height="60" as="geometry" />
        </mxCell>
        <mxCell id="AZNtR-9y9gJ_iq3rFAVb-12" value="MS ConfigurationOrders" style="rounded=1;whiteSpace=wrap;html=1;" vertex="1" parent="fxaZkKc_FLbqbJG7Qa_j-1">
          <mxGeometry x="670" y="340" width="120" height="60" as="geometry" />
        </mxCell>
        <mxCell id="AZNtR-9y9gJ_iq3rFAVb-17" value="MS CatalogsOfers" style="rounded=1;whiteSpace=wrap;html=1;fillColor=#fff2cc;strokeColor=#d6b656;" vertex="1" parent="fxaZkKc_FLbqbJG7Qa_j-1">
          <mxGeometry x="150" y="220" width="120" height="60" as="geometry" />
        </mxCell>
        <mxCell id="AZNtR-9y9gJ_iq3rFAVb-41" style="edgeStyle=orthogonalEdgeStyle;rounded=0;orthogonalLoop=1;jettySize=auto;html=1;entryX=0.5;entryY=0;entryDx=0;entryDy=0;" edge="1" parent="fxaZkKc_FLbqbJG7Qa_j-1" source="AZNtR-9y9gJ_iq3rFAVb-18" target="AZNtR-9y9gJ_iq3rFAVb-19">
          <mxGeometry relative="1" as="geometry">
            <Array as="points">
              <mxPoint x="400" y="200" />
              <mxPoint x="80" y="200" />
            </Array>
          </mxGeometry>
        </mxCell>
        <mxCell id="AZNtR-9y9gJ_iq3rFAVb-42" style="edgeStyle=orthogonalEdgeStyle;rounded=0;orthogonalLoop=1;jettySize=auto;html=1;entryX=0.5;entryY=0;entryDx=0;entryDy=0;" edge="1" parent="fxaZkKc_FLbqbJG7Qa_j-1" source="AZNtR-9y9gJ_iq3rFAVb-18" target="AZNtR-9y9gJ_iq3rFAVb-17">
          <mxGeometry relative="1" as="geometry">
            <Array as="points">
              <mxPoint x="400" y="200" />
              <mxPoint x="210" y="200" />
            </Array>
          </mxGeometry>
        </mxCell>
        <mxCell id="AZNtR-9y9gJ_iq3rFAVb-43" style="edgeStyle=orthogonalEdgeStyle;rounded=0;orthogonalLoop=1;jettySize=auto;html=1;entryX=0.5;entryY=0;entryDx=0;entryDy=0;" edge="1" parent="fxaZkKc_FLbqbJG7Qa_j-1" source="AZNtR-9y9gJ_iq3rFAVb-18" target="AZNtR-9y9gJ_iq3rFAVb-21">
          <mxGeometry relative="1" as="geometry" />
        </mxCell>
        <mxCell id="AZNtR-9y9gJ_iq3rFAVb-44" style="edgeStyle=orthogonalEdgeStyle;rounded=0;orthogonalLoop=1;jettySize=auto;html=1;entryX=0.5;entryY=0;entryDx=0;entryDy=0;" edge="1" parent="fxaZkKc_FLbqbJG7Qa_j-1" source="AZNtR-9y9gJ_iq3rFAVb-18" target="AZNtR-9y9gJ_iq3rFAVb-22">
          <mxGeometry relative="1" as="geometry" />
        </mxCell>
        <mxCell id="AZNtR-9y9gJ_iq3rFAVb-45" style="edgeStyle=orthogonalEdgeStyle;rounded=0;orthogonalLoop=1;jettySize=auto;html=1;" edge="1" parent="fxaZkKc_FLbqbJG7Qa_j-1" source="AZNtR-9y9gJ_iq3rFAVb-18" target="AZNtR-9y9gJ_iq3rFAVb-9">
          <mxGeometry relative="1" as="geometry">
            <Array as="points">
              <mxPoint x="400" y="200" />
              <mxPoint x="600" y="200" />
            </Array>
          </mxGeometry>
        </mxCell>
        <mxCell id="AZNtR-9y9gJ_iq3rFAVb-46" style="edgeStyle=orthogonalEdgeStyle;rounded=0;orthogonalLoop=1;jettySize=auto;html=1;" edge="1" parent="fxaZkKc_FLbqbJG7Qa_j-1" source="AZNtR-9y9gJ_iq3rFAVb-18" target="AZNtR-9y9gJ_iq3rFAVb-23">
          <mxGeometry relative="1" as="geometry">
            <Array as="points">
              <mxPoint x="400" y="200" />
              <mxPoint x="730" y="200" />
            </Array>
          </mxGeometry>
        </mxCell>
        <mxCell id="AZNtR-9y9gJ_iq3rFAVb-18" value="MS ORCH SalesCustomerOrder" style="rounded=1;whiteSpace=wrap;html=1;fillColor=#fff2cc;strokeColor=#d6b656;" vertex="1" parent="fxaZkKc_FLbqbJG7Qa_j-1">
          <mxGeometry x="340" y="120" width="120" height="60" as="geometry" />
        </mxCell>
        <mxCell id="AZNtR-9y9gJ_iq3rFAVb-19" value="MS Interaction Protocol" style="rounded=1;whiteSpace=wrap;html=1;fillColor=#fff2cc;strokeColor=#d6b656;" vertex="1" parent="fxaZkKc_FLbqbJG7Qa_j-1">
          <mxGeometry x="20" y="220" width="120" height="60" as="geometry" />
        </mxCell>
        <mxCell id="AZNtR-9y9gJ_iq3rFAVb-21" value="MS MarketingSegments" style="rounded=1;whiteSpace=wrap;html=1;fillColor=#fff2cc;strokeColor=#d6b656;" vertex="1" parent="fxaZkKc_FLbqbJG7Qa_j-1">
          <mxGeometry x="280" y="220" width="120" height="60" as="geometry" />
        </mxCell>
        <mxCell id="AZNtR-9y9gJ_iq3rFAVb-37" style="edgeStyle=orthogonalEdgeStyle;rounded=0;orthogonalLoop=1;jettySize=auto;html=1;" edge="1" parent="fxaZkKc_FLbqbJG7Qa_j-1" source="AZNtR-9y9gJ_iq3rFAVb-22" target="fxaZkKc_FLbqbJG7Qa_j-10">
          <mxGeometry relative="1" as="geometry">
            <Array as="points">
              <mxPoint x="470" y="290" />
              <mxPoint x="400" y="290" />
            </Array>
          </mxGeometry>
        </mxCell>
        <mxCell id="AZNtR-9y9gJ_iq3rFAVb-22" value="MS NetworkAccessPoint" style="rounded=1;whiteSpace=wrap;html=1;fillColor=#fff2cc;strokeColor=#d6b656;" vertex="1" parent="fxaZkKc_FLbqbJG7Qa_j-1">
          <mxGeometry x="410" y="220" width="120" height="60" as="geometry" />
        </mxCell>
        <mxCell id="AZNtR-9y9gJ_iq3rFAVb-23" value="MS MarketStatistics" style="rounded=1;whiteSpace=wrap;html=1;fillColor=#fff2cc;strokeColor=#d6b656;" vertex="1" parent="fxaZkKc_FLbqbJG7Qa_j-1">
          <mxGeometry x="670" y="220" width="120" height="60" as="geometry" />
        </mxCell>
        <mxCell id="AZNtR-9y9gJ_iq3rFAVb-31" value="&lt;font style=&quot;color: rgb(255, 51, 51);&quot;&gt;MS Cancelamento&lt;/font&gt;" style="rounded=1;whiteSpace=wrap;html=1;fillColor=#fff2cc;strokeColor=#FF3333;labelBorderColor=none;" vertex="1" parent="fxaZkKc_FLbqbJG7Qa_j-1">
          <mxGeometry x="540" y="340" width="120" height="60" as="geometry" />
        </mxCell>
        <mxCell id="AZNtR-9y9gJ_iq3rFAVb-34" style="edgeStyle=orthogonalEdgeStyle;rounded=0;orthogonalLoop=1;jettySize=auto;html=1;entryX=0.5;entryY=0;entryDx=0;entryDy=0;entryPerimeter=0;" edge="1" parent="fxaZkKc_FLbqbJG7Qa_j-1" source="AZNtR-9y9gJ_iq3rFAVb-19" target="fxaZkKc_FLbqbJG7Qa_j-10">
          <mxGeometry relative="1" as="geometry">
            <Array as="points">
              <mxPoint x="80" y="420" />
              <mxPoint x="400" y="420" />
            </Array>
          </mxGeometry>
        </mxCell>
        <mxCell id="AZNtR-9y9gJ_iq3rFAVb-35" style="edgeStyle=orthogonalEdgeStyle;rounded=0;orthogonalLoop=1;jettySize=auto;html=1;entryX=0.5;entryY=0;entryDx=0;entryDy=0;entryPerimeter=0;" edge="1" parent="fxaZkKc_FLbqbJG7Qa_j-1" source="AZNtR-9y9gJ_iq3rFAVb-17" target="fxaZkKc_FLbqbJG7Qa_j-10">
          <mxGeometry relative="1" as="geometry">
            <Array as="points">
              <mxPoint x="210" y="420" />
              <mxPoint x="400" y="420" />
            </Array>
          </mxGeometry>
        </mxCell>
        <mxCell id="AZNtR-9y9gJ_iq3rFAVb-36" style="edgeStyle=orthogonalEdgeStyle;rounded=0;orthogonalLoop=1;jettySize=auto;html=1;entryX=0.5;entryY=0;entryDx=0;entryDy=0;entryPerimeter=0;" edge="1" parent="fxaZkKc_FLbqbJG7Qa_j-1" source="AZNtR-9y9gJ_iq3rFAVb-21" target="fxaZkKc_FLbqbJG7Qa_j-10">
          <mxGeometry relative="1" as="geometry">
            <Array as="points">
              <mxPoint x="340" y="420" />
              <mxPoint x="400" y="420" />
            </Array>
          </mxGeometry>
        </mxCell>
        <mxCell id="AZNtR-9y9gJ_iq3rFAVb-38" style="edgeStyle=orthogonalEdgeStyle;rounded=0;orthogonalLoop=1;jettySize=auto;html=1;entryX=0.5;entryY=0;entryDx=0;entryDy=0;entryPerimeter=0;" edge="1" parent="fxaZkKc_FLbqbJG7Qa_j-1" source="AZNtR-9y9gJ_iq3rFAVb-11" target="fxaZkKc_FLbqbJG7Qa_j-10">
          <mxGeometry relative="1" as="geometry">
            <Array as="points">
              <mxPoint x="470" y="420" />
              <mxPoint x="400" y="420" />
            </Array>
          </mxGeometry>
        </mxCell>
        <mxCell id="AZNtR-9y9gJ_iq3rFAVb-39" style="edgeStyle=orthogonalEdgeStyle;rounded=0;orthogonalLoop=1;jettySize=auto;html=1;entryX=0.5;entryY=0;entryDx=0;entryDy=0;entryPerimeter=0;" edge="1" parent="fxaZkKc_FLbqbJG7Qa_j-1" source="AZNtR-9y9gJ_iq3rFAVb-31" target="fxaZkKc_FLbqbJG7Qa_j-10">
          <mxGeometry relative="1" as="geometry">
            <Array as="points">
              <mxPoint x="600" y="420" />
              <mxPoint x="400" y="420" />
            </Array>
          </mxGeometry>
        </mxCell>
        <mxCell id="AZNtR-9y9gJ_iq3rFAVb-40" style="edgeStyle=orthogonalEdgeStyle;rounded=0;orthogonalLoop=1;jettySize=auto;html=1;entryX=0.5;entryY=0;entryDx=0;entryDy=0;entryPerimeter=0;" edge="1" parent="fxaZkKc_FLbqbJG7Qa_j-1" source="AZNtR-9y9gJ_iq3rFAVb-12" target="fxaZkKc_FLbqbJG7Qa_j-10">
          <mxGeometry relative="1" as="geometry">
            <Array as="points">
              <mxPoint x="730" y="420" />
              <mxPoint x="400" y="420" />
            </Array>
          </mxGeometry>
        </mxCell>
      </root>
    </mxGraphModel>
  </diagram>
  <diagram name="v4" id="jdhc5VGUEVViBUf0QCX6">
    <mxGraphModel dx="1042" dy="527" grid="1" gridSize="10" guides="1" tooltips="1" connect="1" arrows="1" fold="1" page="1" pageScale="1" pageWidth="827" pageHeight="1169" math="0" shadow="0">
      <root>
        <mxCell id="55Ri1quI2qp2pA3ybZK6-0" />
        <mxCell id="55Ri1quI2qp2pA3ybZK6-1" parent="55Ri1quI2qp2pA3ybZK6-0" />
        <mxCell id="Tn2fzim8hyOtY1Cur62b-35" style="edgeStyle=orthogonalEdgeStyle;rounded=0;orthogonalLoop=1;jettySize=auto;html=1;entryX=0.5;entryY=0;entryDx=0;entryDy=0;" edge="1" parent="55Ri1quI2qp2pA3ybZK6-1" source="Tn2fzim8hyOtY1Cur62b-20" target="Tn2fzim8hyOtY1Cur62b-18">
          <mxGeometry relative="1" as="geometry">
            <Array as="points">
              <mxPoint x="660" y="300" />
              <mxPoint x="750" y="300" />
            </Array>
          </mxGeometry>
        </mxCell>
        <mxCell id="Tn2fzim8hyOtY1Cur62b-0" value="NOVO MS Matriz de Substituição" style="rounded=1;whiteSpace=wrap;html=1;fillColor=#fff2cc;strokeColor=#d6b656;" vertex="1" parent="55Ri1quI2qp2pA3ybZK6-1">
          <mxGeometry x="250" y="235" width="120" height="60" as="geometry" />
        </mxCell>
        <mxCell id="Tn2fzim8hyOtY1Cur62b-6" value="" style="edgeStyle=orthogonalEdgeStyle;rounded=0;orthogonalLoop=1;jettySize=auto;html=1;entryX=0.5;entryY=0;entryDx=0;entryDy=0;" edge="1" parent="55Ri1quI2qp2pA3ybZK6-1" source="Tn2fzim8hyOtY1Cur62b-1" target="Tn2fzim8hyOtY1Cur62b-4">
          <mxGeometry relative="1" as="geometry">
            <Array as="points">
              <mxPoint x="240" y="40" />
            </Array>
          </mxGeometry>
        </mxCell>
        <mxCell id="Tn2fzim8hyOtY1Cur62b-7" style="edgeStyle=orthogonalEdgeStyle;rounded=0;orthogonalLoop=1;jettySize=auto;html=1;entryX=0.5;entryY=0;entryDx=0;entryDy=0;" edge="1" parent="55Ri1quI2qp2pA3ybZK6-1" source="Tn2fzim8hyOtY1Cur62b-1" target="Tn2fzim8hyOtY1Cur62b-5">
          <mxGeometry relative="1" as="geometry">
            <Array as="points">
              <mxPoint x="380" y="40" />
            </Array>
          </mxGeometry>
        </mxCell>
        <mxCell id="Tn2fzim8hyOtY1Cur62b-1" value="Cliente/Vendedor" style="shape=umlActor;verticalLabelPosition=bottom;verticalAlign=top;html=1;outlineConnect=0;" vertex="1" parent="55Ri1quI2qp2pA3ybZK6-1">
          <mxGeometry x="40" y="30" width="30" height="60" as="geometry" />
        </mxCell>
        <mxCell id="Tn2fzim8hyOtY1Cur62b-8" style="edgeStyle=orthogonalEdgeStyle;rounded=0;orthogonalLoop=1;jettySize=auto;html=1;entryX=0.5;entryY=0;entryDx=0;entryDy=0;" edge="1" parent="55Ri1quI2qp2pA3ybZK6-1" source="Tn2fzim8hyOtY1Cur62b-4" target="Tn2fzim8hyOtY1Cur62b-0">
          <mxGeometry relative="1" as="geometry">
            <Array as="points">
              <mxPoint x="240" y="220" />
              <mxPoint x="310" y="220" />
            </Array>
          </mxGeometry>
        </mxCell>
        <mxCell id="Tn2fzim8hyOtY1Cur62b-13" value="Consulta possibilidade&amp;nbsp;&lt;span style=&quot;background-color: light-dark(#ffffff, var(--ge-dark-color, #121212)); color: light-dark(rgb(0, 0, 0), rgb(255, 255, 255));&quot;&gt;de&amp;nbsp;&lt;/span&gt;&lt;div&gt;&lt;span style=&quot;background-color: light-dark(#ffffff, var(--ge-dark-color, #121212)); color: light-dark(rgb(0, 0, 0), rgb(255, 255, 255));&quot;&gt;substituição&amp;nbsp;&lt;/span&gt;&lt;span style=&quot;color: light-dark(rgb(0, 0, 0), rgb(255, 255, 255)); background-color: light-dark(#ffffff, var(--ge-dark-color, #121212));&quot;&gt;de&amp;nbsp;&lt;/span&gt;&lt;/div&gt;&lt;div&gt;&lt;span style=&quot;background-color: light-dark(#ffffff, var(--ge-dark-color, #121212)); color: light-dark(rgb(0, 0, 0), rgb(255, 255, 255));&quot;&gt;SVA no Contrato&lt;/span&gt;&lt;/div&gt;" style="edgeLabel;html=1;align=center;verticalAlign=middle;resizable=0;points=[];" vertex="1" connectable="0" parent="Tn2fzim8hyOtY1Cur62b-8">
          <mxGeometry x="-0.8036" y="-1" relative="1" as="geometry">
            <mxPoint x="71" y="52" as="offset" />
          </mxGeometry>
        </mxCell>
        <mxCell id="Tn2fzim8hyOtY1Cur62b-11" style="edgeStyle=orthogonalEdgeStyle;rounded=0;orthogonalLoop=1;jettySize=auto;html=1;" edge="1" parent="55Ri1quI2qp2pA3ybZK6-1" source="Tn2fzim8hyOtY1Cur62b-4" target="Tn2fzim8hyOtY1Cur62b-10">
          <mxGeometry relative="1" as="geometry">
            <Array as="points">
              <mxPoint x="210" y="330" />
              <mxPoint x="470" y="330" />
              <mxPoint x="470" y="90" />
              <mxPoint x="620" y="90" />
            </Array>
          </mxGeometry>
        </mxCell>
        <mxCell id="Tn2fzim8hyOtY1Cur62b-4" value="Claro Store" style="rounded=1;whiteSpace=wrap;html=1;" vertex="1" parent="55Ri1quI2qp2pA3ybZK6-1">
          <mxGeometry x="180" y="60" width="120" height="60" as="geometry" />
        </mxCell>
        <mxCell id="Tn2fzim8hyOtY1Cur62b-9" style="edgeStyle=orthogonalEdgeStyle;rounded=0;orthogonalLoop=1;jettySize=auto;html=1;entryX=0.5;entryY=0;entryDx=0;entryDy=0;" edge="1" parent="55Ri1quI2qp2pA3ybZK6-1" source="Tn2fzim8hyOtY1Cur62b-5" target="Tn2fzim8hyOtY1Cur62b-0">
          <mxGeometry relative="1" as="geometry">
            <Array as="points">
              <mxPoint x="380" y="220" />
              <mxPoint x="310" y="220" />
            </Array>
          </mxGeometry>
        </mxCell>
        <mxCell id="Tn2fzim8hyOtY1Cur62b-12" style="edgeStyle=orthogonalEdgeStyle;rounded=0;orthogonalLoop=1;jettySize=auto;html=1;entryX=0.5;entryY=0;entryDx=0;entryDy=0;" edge="1" parent="55Ri1quI2qp2pA3ybZK6-1" source="Tn2fzim8hyOtY1Cur62b-5" target="Tn2fzim8hyOtY1Cur62b-10">
          <mxGeometry relative="1" as="geometry">
            <Array as="points">
              <mxPoint x="620" y="90" />
            </Array>
          </mxGeometry>
        </mxCell>
        <mxCell id="Tn2fzim8hyOtY1Cur62b-5" value="Ouvidoria Call Center" style="rounded=1;whiteSpace=wrap;html=1;" vertex="1" parent="55Ri1quI2qp2pA3ybZK6-1">
          <mxGeometry x="320" y="60" width="120" height="60" as="geometry" />
        </mxCell>
        <mxCell id="Tn2fzim8hyOtY1Cur62b-10" value="MS Venda Base" style="rounded=1;whiteSpace=wrap;html=1;fillColor=#fff2cc;strokeColor=#d6b656;" vertex="1" parent="55Ri1quI2qp2pA3ybZK6-1">
          <mxGeometry x="600" y="60" width="120" height="60" as="geometry" />
        </mxCell>
        <mxCell id="Tn2fzim8hyOtY1Cur62b-15" value="Submete&amp;nbsp;&lt;div&gt;substituição&amp;nbsp;&lt;/div&gt;&lt;div&gt;de SVA&amp;nbsp;&lt;/div&gt;" style="edgeLabel;html=1;align=center;verticalAlign=middle;resizable=0;points=[];" vertex="1" connectable="0" parent="55Ri1quI2qp2pA3ybZK6-1">
          <mxGeometry x="560" y="70" as="geometry">
            <mxPoint x="-33" y="11" as="offset" />
          </mxGeometry>
        </mxCell>
        <mxCell id="Tn2fzim8hyOtY1Cur62b-36" style="edgeStyle=orthogonalEdgeStyle;rounded=0;orthogonalLoop=1;jettySize=auto;html=1;entryX=0.5;entryY=0;entryDx=0;entryDy=0;" edge="1" parent="55Ri1quI2qp2pA3ybZK6-1" source="Tn2fzim8hyOtY1Cur62b-16" target="Tn2fzim8hyOtY1Cur62b-27">
          <mxGeometry relative="1" as="geometry" />
        </mxCell>
        <mxCell id="Tn2fzim8hyOtY1Cur62b-16" value="Abre solic cancelamento&amp;nbsp;&lt;div&gt;de SVA dentro do Bundle&lt;/div&gt;" style="rounded=1;whiteSpace=wrap;html=1;" vertex="1" parent="55Ri1quI2qp2pA3ybZK6-1">
          <mxGeometry x="510" y="320" width="120" height="60" as="geometry" />
        </mxCell>
        <mxCell id="Tn2fzim8hyOtY1Cur62b-28" value="" style="edgeStyle=orthogonalEdgeStyle;rounded=0;orthogonalLoop=1;jettySize=auto;html=1;" edge="1" parent="55Ri1quI2qp2pA3ybZK6-1" source="Tn2fzim8hyOtY1Cur62b-18" target="Tn2fzim8hyOtY1Cur62b-27">
          <mxGeometry relative="1" as="geometry" />
        </mxCell>
        <mxCell id="Tn2fzim8hyOtY1Cur62b-18" value="Abre solic de adesão de SVA dentro do Bundle" style="whiteSpace=wrap;html=1;rounded=1;" vertex="1" parent="55Ri1quI2qp2pA3ybZK6-1">
          <mxGeometry x="690" y="320" width="120" height="60" as="geometry" />
        </mxCell>
        <mxCell id="Tn2fzim8hyOtY1Cur62b-25" style="edgeStyle=orthogonalEdgeStyle;rounded=0;orthogonalLoop=1;jettySize=auto;html=1;entryX=0.5;entryY=0;entryDx=0;entryDy=0;" edge="1" parent="55Ri1quI2qp2pA3ybZK6-1" source="Tn2fzim8hyOtY1Cur62b-20" target="Tn2fzim8hyOtY1Cur62b-16">
          <mxGeometry relative="1" as="geometry">
            <mxPoint x="660" y="350" as="targetPoint" />
            <Array as="points">
              <mxPoint x="660" y="300" />
              <mxPoint x="570" y="300" />
            </Array>
          </mxGeometry>
        </mxCell>
        <mxCell id="Tn2fzim8hyOtY1Cur62b-26" value="&quot;SIM&quot;&lt;div&gt;- Orquestra par&amp;nbsp;&lt;/div&gt;&lt;div&gt;de SOLICs&lt;/div&gt;" style="edgeLabel;html=1;align=center;verticalAlign=middle;resizable=0;points=[];" vertex="1" connectable="0" parent="Tn2fzim8hyOtY1Cur62b-25">
          <mxGeometry x="-0.5984" y="3" relative="1" as="geometry">
            <mxPoint x="-3" as="offset" />
          </mxGeometry>
        </mxCell>
        <mxCell id="Tn2fzim8hyOtY1Cur62b-32" style="edgeStyle=orthogonalEdgeStyle;rounded=0;orthogonalLoop=1;jettySize=auto;html=1;exitX=1;exitY=0.5;exitDx=0;exitDy=0;entryX=1;entryY=0.5;entryDx=0;entryDy=0;" edge="1" parent="55Ri1quI2qp2pA3ybZK6-1" source="Tn2fzim8hyOtY1Cur62b-20" target="Tn2fzim8hyOtY1Cur62b-10">
          <mxGeometry relative="1" as="geometry">
            <mxPoint x="740" y="210" as="sourcePoint" />
            <mxPoint x="730" y="80" as="targetPoint" />
            <Array as="points">
              <mxPoint x="770" y="180" />
              <mxPoint x="770" y="90" />
            </Array>
          </mxGeometry>
        </mxCell>
        <mxCell id="Tn2fzim8hyOtY1Cur62b-33" value="&quot;NÃO&quot;&lt;div&gt;- Retorna Erro&lt;/div&gt;" style="edgeLabel;html=1;align=center;verticalAlign=middle;resizable=0;points=[];" vertex="1" connectable="0" parent="Tn2fzim8hyOtY1Cur62b-32">
          <mxGeometry x="0.0133" y="-3" relative="1" as="geometry">
            <mxPoint x="-13" y="1" as="offset" />
          </mxGeometry>
        </mxCell>
        <mxCell id="Tn2fzim8hyOtY1Cur62b-20" value="Valida substituição?" style="rhombus;whiteSpace=wrap;html=1;rounded=1;fillColor=#fff2cc;strokeColor=#d6b656;" vertex="1" parent="55Ri1quI2qp2pA3ybZK6-1">
          <mxGeometry x="610" y="140" width="100" height="80" as="geometry" />
        </mxCell>
        <mxCell id="Tn2fzim8hyOtY1Cur62b-27" value="Gera eventos de aprovisionamento&lt;div&gt;AS IS&lt;/div&gt;" style="whiteSpace=wrap;html=1;rounded=1;" vertex="1" parent="55Ri1quI2qp2pA3ybZK6-1">
          <mxGeometry x="600" y="430" width="120" height="60" as="geometry" />
        </mxCell>
      </root>
    </mxGraphModel>
  </diagram>
  <diagram name="Estrutura de produtos" id="-EVW5rOapGBiyRQt8Cfb">
    <mxGraphModel dx="1050" dy="522" grid="1" gridSize="10" guides="1" tooltips="1" connect="1" arrows="1" fold="1" page="1" pageScale="1" pageWidth="827" pageHeight="1169" math="0" shadow="0">
      <root>
        <mxCell id="Aan4vw2K8Wj1uO4sk84N-0" />
        <mxCell id="Aan4vw2K8Wj1uO4sk84N-1" parent="Aan4vw2K8Wj1uO4sk84N-0" />
        <mxCell id="9hEXAgjlc97LaG0PaVdf-0" value="COMBO SVA" style="swimlane;fontStyle=0;childLayout=stackLayout;horizontal=1;startSize=30;horizontalStack=0;resizeParent=1;resizeParentMax=0;resizeLast=0;collapsible=1;marginBottom=0;whiteSpace=wrap;html=1;" vertex="1" parent="Aan4vw2K8Wj1uO4sk84N-1">
          <mxGeometry x="20" y="40" width="140" height="150" as="geometry" />
        </mxCell>
        <mxCell id="9hEXAgjlc97LaG0PaVdf-1" value="ID Perfil Cliente" style="text;strokeColor=none;fillColor=none;align=left;verticalAlign=middle;spacingLeft=4;spacingRight=4;overflow=hidden;points=[[0,0.5],[1,0.5]];portConstraint=eastwest;rotatable=0;whiteSpace=wrap;html=1;" vertex="1" parent="9hEXAgjlc97LaG0PaVdf-0">
          <mxGeometry y="30" width="140" height="30" as="geometry" />
        </mxCell>
        <mxCell id="9hEXAgjlc97LaG0PaVdf-2" value="ID&amp;nbsp;&lt;span style=&quot;background-color: initial;&quot;&gt;Prod Principal&lt;/span&gt;" style="text;strokeColor=none;fillColor=none;align=left;verticalAlign=middle;spacingLeft=4;spacingRight=4;overflow=hidden;points=[[0,0.5],[1,0.5]];portConstraint=eastwest;rotatable=0;whiteSpace=wrap;html=1;" vertex="1" parent="9hEXAgjlc97LaG0PaVdf-0">
          <mxGeometry y="60" width="140" height="30" as="geometry" />
        </mxCell>
        <mxCell id="9hEXAgjlc97LaG0PaVdf-3" value="ID Prod SVA" style="text;strokeColor=none;fillColor=none;align=left;verticalAlign=middle;spacingLeft=4;spacingRight=4;overflow=hidden;points=[[0,0.5],[1,0.5]];portConstraint=eastwest;rotatable=0;whiteSpace=wrap;html=1;" vertex="1" parent="9hEXAgjlc97LaG0PaVdf-0">
          <mxGeometry y="90" width="140" height="30" as="geometry" />
        </mxCell>
        <mxCell id="9hEXAgjlc97LaG0PaVdf-4" value="Flags Controle" style="text;strokeColor=none;fillColor=none;align=left;verticalAlign=middle;spacingLeft=4;spacingRight=4;overflow=hidden;points=[[0,0.5],[1,0.5]];portConstraint=eastwest;rotatable=0;whiteSpace=wrap;html=1;" vertex="1" parent="9hEXAgjlc97LaG0PaVdf-0">
          <mxGeometry y="120" width="140" height="30" as="geometry" />
        </mxCell>
        <mxCell id="9hEXAgjlc97LaG0PaVdf-5" value="SN_PRODUTO" style="swimlane;fontStyle=0;childLayout=stackLayout;horizontal=1;startSize=30;horizontalStack=0;resizeParent=1;resizeParentMax=0;resizeLast=0;collapsible=1;marginBottom=0;whiteSpace=wrap;html=1;" vertex="1" parent="Aan4vw2K8Wj1uO4sk84N-1">
          <mxGeometry x="180" y="40" width="140" height="210" as="geometry" />
        </mxCell>
        <mxCell id="9hEXAgjlc97LaG0PaVdf-6" value="ID Produto" style="text;strokeColor=none;fillColor=none;align=left;verticalAlign=middle;spacingLeft=4;spacingRight=4;overflow=hidden;points=[[0,0.5],[1,0.5]];portConstraint=eastwest;rotatable=0;whiteSpace=wrap;html=1;" vertex="1" parent="9hEXAgjlc97LaG0PaVdf-5">
          <mxGeometry y="30" width="140" height="30" as="geometry" />
        </mxCell>
        <mxCell id="9hEXAgjlc97LaG0PaVdf-7" value="ID tipo produto" style="text;strokeColor=none;fillColor=none;align=left;verticalAlign=middle;spacingLeft=4;spacingRight=4;overflow=hidden;points=[[0,0.5],[1,0.5]];portConstraint=eastwest;rotatable=0;whiteSpace=wrap;html=1;" vertex="1" parent="9hEXAgjlc97LaG0PaVdf-5">
          <mxGeometry y="60" width="140" height="30" as="geometry" />
        </mxCell>
        <mxCell id="9hEXAgjlc97LaG0PaVdf-8" value="ID Plano" style="text;strokeColor=none;fillColor=none;align=left;verticalAlign=middle;spacingLeft=4;spacingRight=4;overflow=hidden;points=[[0,0.5],[1,0.5]];portConstraint=eastwest;rotatable=0;whiteSpace=wrap;html=1;" vertex="1" parent="9hEXAgjlc97LaG0PaVdf-5">
          <mxGeometry y="90" width="140" height="30" as="geometry" />
        </mxCell>
        <mxCell id="9hEXAgjlc97LaG0PaVdf-9" value="Info Contab" style="text;strokeColor=none;fillColor=none;align=left;verticalAlign=middle;spacingLeft=4;spacingRight=4;overflow=hidden;points=[[0,0.5],[1,0.5]];portConstraint=eastwest;rotatable=0;whiteSpace=wrap;html=1;" vertex="1" parent="9hEXAgjlc97LaG0PaVdf-5">
          <mxGeometry y="120" width="140" height="30" as="geometry" />
        </mxCell>
        <mxCell id="9hEXAgjlc97LaG0PaVdf-10" value="Info Técnica" style="text;strokeColor=none;fillColor=none;align=left;verticalAlign=middle;spacingLeft=4;spacingRight=4;overflow=hidden;points=[[0,0.5],[1,0.5]];portConstraint=eastwest;rotatable=0;whiteSpace=wrap;html=1;" vertex="1" parent="9hEXAgjlc97LaG0PaVdf-5">
          <mxGeometry y="150" width="140" height="30" as="geometry" />
        </mxCell>
        <mxCell id="9hEXAgjlc97LaG0PaVdf-11" value="Info Financeira" style="text;strokeColor=none;fillColor=none;align=left;verticalAlign=middle;spacingLeft=4;spacingRight=4;overflow=hidden;points=[[0,0.5],[1,0.5]];portConstraint=eastwest;rotatable=0;whiteSpace=wrap;html=1;" vertex="1" parent="9hEXAgjlc97LaG0PaVdf-5">
          <mxGeometry y="180" width="140" height="30" as="geometry" />
        </mxCell>
        <mxCell id="9hEXAgjlc97LaG0PaVdf-12" value="SVA" style="swimlane;fontStyle=0;childLayout=stackLayout;horizontal=1;startSize=30;horizontalStack=0;resizeParent=1;resizeParentMax=0;resizeLast=0;collapsible=1;marginBottom=0;whiteSpace=wrap;html=1;" vertex="1" parent="Aan4vw2K8Wj1uO4sk84N-1">
          <mxGeometry x="340" y="40" width="140" height="180" as="geometry" />
        </mxCell>
        <mxCell id="9hEXAgjlc97LaG0PaVdf-13" value="ID Prod SVA" style="text;strokeColor=none;fillColor=none;align=left;verticalAlign=middle;spacingLeft=4;spacingRight=4;overflow=hidden;points=[[0,0.5],[1,0.5]];portConstraint=eastwest;rotatable=0;whiteSpace=wrap;html=1;" vertex="1" parent="9hEXAgjlc97LaG0PaVdf-12">
          <mxGeometry y="30" width="140" height="30" as="geometry" />
        </mxCell>
        <mxCell id="9hEXAgjlc97LaG0PaVdf-20" value="ID SKU Parceiro" style="text;strokeColor=none;fillColor=none;align=left;verticalAlign=middle;spacingLeft=4;spacingRight=4;overflow=hidden;points=[[0,0.5],[1,0.5]];portConstraint=eastwest;rotatable=0;whiteSpace=wrap;html=1;" vertex="1" parent="9hEXAgjlc97LaG0PaVdf-12">
          <mxGeometry y="60" width="140" height="30" as="geometry" />
        </mxCell>
        <mxCell id="9hEXAgjlc97LaG0PaVdf-16" value="Info Contab" style="text;strokeColor=none;fillColor=none;align=left;verticalAlign=middle;spacingLeft=4;spacingRight=4;overflow=hidden;points=[[0,0.5],[1,0.5]];portConstraint=eastwest;rotatable=0;whiteSpace=wrap;html=1;" vertex="1" parent="9hEXAgjlc97LaG0PaVdf-12">
          <mxGeometry y="90" width="140" height="30" as="geometry" />
        </mxCell>
        <mxCell id="9hEXAgjlc97LaG0PaVdf-17" value="Info Técnica" style="text;strokeColor=none;fillColor=none;align=left;verticalAlign=middle;spacingLeft=4;spacingRight=4;overflow=hidden;points=[[0,0.5],[1,0.5]];portConstraint=eastwest;rotatable=0;whiteSpace=wrap;html=1;" vertex="1" parent="9hEXAgjlc97LaG0PaVdf-12">
          <mxGeometry y="120" width="140" height="30" as="geometry" />
        </mxCell>
        <mxCell id="9hEXAgjlc97LaG0PaVdf-18" value="Info Financeira" style="text;strokeColor=none;fillColor=none;align=left;verticalAlign=middle;spacingLeft=4;spacingRight=4;overflow=hidden;points=[[0,0.5],[1,0.5]];portConstraint=eastwest;rotatable=0;whiteSpace=wrap;html=1;" vertex="1" parent="9hEXAgjlc97LaG0PaVdf-12">
          <mxGeometry y="150" width="140" height="30" as="geometry" />
        </mxCell>
        <mxCell id="9hEXAgjlc97LaG0PaVdf-21" value="PROPOSTA" style="swimlane;fontStyle=0;childLayout=stackLayout;horizontal=1;startSize=30;horizontalStack=0;resizeParent=1;resizeParentMax=0;resizeLast=0;collapsible=1;marginBottom=0;whiteSpace=wrap;html=1;" vertex="1" parent="Aan4vw2K8Wj1uO4sk84N-1">
          <mxGeometry x="660" y="40" width="140" height="300" as="geometry" />
        </mxCell>
        <mxCell id="9hEXAgjlc97LaG0PaVdf-22" value="ID Proposta" style="text;strokeColor=none;fillColor=none;align=left;verticalAlign=middle;spacingLeft=4;spacingRight=4;overflow=hidden;points=[[0,0.5],[1,0.5]];portConstraint=eastwest;rotatable=0;whiteSpace=wrap;html=1;" vertex="1" parent="9hEXAgjlc97LaG0PaVdf-21">
          <mxGeometry y="30" width="140" height="30" as="geometry" />
        </mxCell>
        <mxCell id="9hEXAgjlc97LaG0PaVdf-23" value="ID Ponto Principal" style="text;strokeColor=none;fillColor=none;align=left;verticalAlign=middle;spacingLeft=4;spacingRight=4;overflow=hidden;points=[[0,0.5],[1,0.5]];portConstraint=eastwest;rotatable=0;whiteSpace=wrap;html=1;" vertex="1" parent="9hEXAgjlc97LaG0PaVdf-21">
          <mxGeometry y="60" width="140" height="30" as="geometry" />
        </mxCell>
        <mxCell id="9hEXAgjlc97LaG0PaVdf-24" value="ID Perfil Cliente" style="text;strokeColor=none;fillColor=none;align=left;verticalAlign=middle;spacingLeft=4;spacingRight=4;overflow=hidden;points=[[0,0.5],[1,0.5]];portConstraint=eastwest;rotatable=0;whiteSpace=wrap;html=1;" vertex="1" parent="9hEXAgjlc97LaG0PaVdf-21">
          <mxGeometry y="90" width="140" height="30" as="geometry" />
        </mxCell>
        <mxCell id="9hEXAgjlc97LaG0PaVdf-28" value="ID Produto" style="text;strokeColor=none;fillColor=none;align=left;verticalAlign=middle;spacingLeft=4;spacingRight=4;overflow=hidden;points=[[0,0.5],[1,0.5]];portConstraint=eastwest;rotatable=0;whiteSpace=wrap;html=1;" vertex="1" parent="9hEXAgjlc97LaG0PaVdf-21">
          <mxGeometry y="120" width="140" height="30" as="geometry" />
        </mxCell>
        <mxCell id="9hEXAgjlc97LaG0PaVdf-61" value="ID Oferta" style="text;strokeColor=none;fillColor=none;align=left;verticalAlign=middle;spacingLeft=4;spacingRight=4;overflow=hidden;points=[[0,0.5],[1,0.5]];portConstraint=eastwest;rotatable=0;whiteSpace=wrap;html=1;" vertex="1" parent="9hEXAgjlc97LaG0PaVdf-21">
          <mxGeometry y="150" width="140" height="30" as="geometry" />
        </mxCell>
        <mxCell id="9hEXAgjlc97LaG0PaVdf-29" value="ID Prod SVA" style="text;strokeColor=none;fillColor=none;align=left;verticalAlign=middle;spacingLeft=4;spacingRight=4;overflow=hidden;points=[[0,0.5],[1,0.5]];portConstraint=eastwest;rotatable=0;whiteSpace=wrap;html=1;" vertex="1" parent="9hEXAgjlc97LaG0PaVdf-21">
          <mxGeometry y="180" width="140" height="30" as="geometry" />
        </mxCell>
        <mxCell id="9hEXAgjlc97LaG0PaVdf-36" value="ID Prod ALC" style="text;strokeColor=none;fillColor=none;align=left;verticalAlign=middle;spacingLeft=4;spacingRight=4;overflow=hidden;points=[[0,0.5],[1,0.5]];portConstraint=eastwest;rotatable=0;whiteSpace=wrap;html=1;" vertex="1" parent="9hEXAgjlc97LaG0PaVdf-21">
          <mxGeometry y="210" width="140" height="30" as="geometry" />
        </mxCell>
        <mxCell id="9hEXAgjlc97LaG0PaVdf-25" value="Info Técnica" style="text;strokeColor=none;fillColor=none;align=left;verticalAlign=middle;spacingLeft=4;spacingRight=4;overflow=hidden;points=[[0,0.5],[1,0.5]];portConstraint=eastwest;rotatable=0;whiteSpace=wrap;html=1;" vertex="1" parent="9hEXAgjlc97LaG0PaVdf-21">
          <mxGeometry y="240" width="140" height="30" as="geometry" />
        </mxCell>
        <mxCell id="9hEXAgjlc97LaG0PaVdf-26" value="Info Financeira" style="text;strokeColor=none;fillColor=none;align=left;verticalAlign=middle;spacingLeft=4;spacingRight=4;overflow=hidden;points=[[0,0.5],[1,0.5]];portConstraint=eastwest;rotatable=0;whiteSpace=wrap;html=1;" vertex="1" parent="9hEXAgjlc97LaG0PaVdf-21">
          <mxGeometry y="270" width="140" height="30" as="geometry" />
        </mxCell>
        <mxCell id="9hEXAgjlc97LaG0PaVdf-30" value="ALC (?)" style="swimlane;fontStyle=0;childLayout=stackLayout;horizontal=1;startSize=30;horizontalStack=0;resizeParent=1;resizeParentMax=0;resizeLast=0;collapsible=1;marginBottom=0;whiteSpace=wrap;html=1;" vertex="1" parent="Aan4vw2K8Wj1uO4sk84N-1">
          <mxGeometry x="500" y="40" width="140" height="180" as="geometry" />
        </mxCell>
        <mxCell id="9hEXAgjlc97LaG0PaVdf-31" value="ID Prod ALC" style="text;strokeColor=none;fillColor=none;align=left;verticalAlign=middle;spacingLeft=4;spacingRight=4;overflow=hidden;points=[[0,0.5],[1,0.5]];portConstraint=eastwest;rotatable=0;whiteSpace=wrap;html=1;" vertex="1" parent="9hEXAgjlc97LaG0PaVdf-30">
          <mxGeometry y="30" width="140" height="30" as="geometry" />
        </mxCell>
        <mxCell id="9hEXAgjlc97LaG0PaVdf-32" value="ID SKU Parceiro" style="text;strokeColor=none;fillColor=none;align=left;verticalAlign=middle;spacingLeft=4;spacingRight=4;overflow=hidden;points=[[0,0.5],[1,0.5]];portConstraint=eastwest;rotatable=0;whiteSpace=wrap;html=1;" vertex="1" parent="9hEXAgjlc97LaG0PaVdf-30">
          <mxGeometry y="60" width="140" height="30" as="geometry" />
        </mxCell>
        <mxCell id="9hEXAgjlc97LaG0PaVdf-33" value="Info Contab" style="text;strokeColor=none;fillColor=none;align=left;verticalAlign=middle;spacingLeft=4;spacingRight=4;overflow=hidden;points=[[0,0.5],[1,0.5]];portConstraint=eastwest;rotatable=0;whiteSpace=wrap;html=1;" vertex="1" parent="9hEXAgjlc97LaG0PaVdf-30">
          <mxGeometry y="90" width="140" height="30" as="geometry" />
        </mxCell>
        <mxCell id="9hEXAgjlc97LaG0PaVdf-34" value="Info Técnica" style="text;strokeColor=none;fillColor=none;align=left;verticalAlign=middle;spacingLeft=4;spacingRight=4;overflow=hidden;points=[[0,0.5],[1,0.5]];portConstraint=eastwest;rotatable=0;whiteSpace=wrap;html=1;" vertex="1" parent="9hEXAgjlc97LaG0PaVdf-30">
          <mxGeometry y="120" width="140" height="30" as="geometry" />
        </mxCell>
        <mxCell id="9hEXAgjlc97LaG0PaVdf-35" value="Info Financeira" style="text;strokeColor=none;fillColor=none;align=left;verticalAlign=middle;spacingLeft=4;spacingRight=4;overflow=hidden;points=[[0,0.5],[1,0.5]];portConstraint=eastwest;rotatable=0;whiteSpace=wrap;html=1;" vertex="1" parent="9hEXAgjlc97LaG0PaVdf-30">
          <mxGeometry y="150" width="140" height="30" as="geometry" />
        </mxCell>
        <mxCell id="9hEXAgjlc97LaG0PaVdf-43" value="PROPOSTA" style="swimlane;fontStyle=0;childLayout=stackLayout;horizontal=1;startSize=30;horizontalStack=0;resizeParent=1;resizeParentMax=0;resizeLast=0;collapsible=1;marginBottom=0;whiteSpace=wrap;html=1;" vertex="1" parent="Aan4vw2K8Wj1uO4sk84N-1">
          <mxGeometry x="20" y="340" width="140" height="300" as="geometry" />
        </mxCell>
        <mxCell id="9hEXAgjlc97LaG0PaVdf-44" value="ID Proposta" style="text;strokeColor=none;fillColor=none;align=left;verticalAlign=middle;spacingLeft=4;spacingRight=4;overflow=hidden;points=[[0,0.5],[1,0.5]];portConstraint=eastwest;rotatable=0;whiteSpace=wrap;html=1;" vertex="1" parent="9hEXAgjlc97LaG0PaVdf-43">
          <mxGeometry y="30" width="140" height="30" as="geometry" />
        </mxCell>
        <mxCell id="9hEXAgjlc97LaG0PaVdf-45" value="ID Ponto Principal" style="text;strokeColor=none;fillColor=none;align=left;verticalAlign=middle;spacingLeft=4;spacingRight=4;overflow=hidden;points=[[0,0.5],[1,0.5]];portConstraint=eastwest;rotatable=0;whiteSpace=wrap;html=1;" vertex="1" parent="9hEXAgjlc97LaG0PaVdf-43">
          <mxGeometry y="60" width="140" height="30" as="geometry" />
        </mxCell>
        <mxCell id="9hEXAgjlc97LaG0PaVdf-46" value="ID Perfil Cliente" style="text;strokeColor=none;fillColor=none;align=left;verticalAlign=middle;spacingLeft=4;spacingRight=4;overflow=hidden;points=[[0,0.5],[1,0.5]];portConstraint=eastwest;rotatable=0;whiteSpace=wrap;html=1;" vertex="1" parent="9hEXAgjlc97LaG0PaVdf-43">
          <mxGeometry y="90" width="140" height="30" as="geometry" />
        </mxCell>
        <mxCell id="9hEXAgjlc97LaG0PaVdf-47" value="ID Produto" style="text;strokeColor=none;fillColor=none;align=left;verticalAlign=middle;spacingLeft=4;spacingRight=4;overflow=hidden;points=[[0,0.5],[1,0.5]];portConstraint=eastwest;rotatable=0;whiteSpace=wrap;html=1;" vertex="1" parent="9hEXAgjlc97LaG0PaVdf-43">
          <mxGeometry y="120" width="140" height="30" as="geometry" />
        </mxCell>
        <mxCell id="9hEXAgjlc97LaG0PaVdf-59" value="ID Oferta" style="text;strokeColor=none;fillColor=none;align=left;verticalAlign=middle;spacingLeft=4;spacingRight=4;overflow=hidden;points=[[0,0.5],[1,0.5]];portConstraint=eastwest;rotatable=0;whiteSpace=wrap;html=1;" vertex="1" parent="9hEXAgjlc97LaG0PaVdf-43">
          <mxGeometry y="150" width="140" height="30" as="geometry" />
        </mxCell>
        <mxCell id="9hEXAgjlc97LaG0PaVdf-48" value="ID Prod SVA" style="text;strokeColor=none;fillColor=none;align=left;verticalAlign=middle;spacingLeft=4;spacingRight=4;overflow=hidden;points=[[0,0.5],[1,0.5]];portConstraint=eastwest;rotatable=0;whiteSpace=wrap;html=1;" vertex="1" parent="9hEXAgjlc97LaG0PaVdf-43">
          <mxGeometry y="180" width="140" height="30" as="geometry" />
        </mxCell>
        <mxCell id="9hEXAgjlc97LaG0PaVdf-49" value="ID Prod ALC" style="text;strokeColor=none;fillColor=none;align=left;verticalAlign=middle;spacingLeft=4;spacingRight=4;overflow=hidden;points=[[0,0.5],[1,0.5]];portConstraint=eastwest;rotatable=0;whiteSpace=wrap;html=1;" vertex="1" parent="9hEXAgjlc97LaG0PaVdf-43">
          <mxGeometry y="210" width="140" height="30" as="geometry" />
        </mxCell>
        <mxCell id="9hEXAgjlc97LaG0PaVdf-50" value="Info Técnica" style="text;strokeColor=none;fillColor=none;align=left;verticalAlign=middle;spacingLeft=4;spacingRight=4;overflow=hidden;points=[[0,0.5],[1,0.5]];portConstraint=eastwest;rotatable=0;whiteSpace=wrap;html=1;" vertex="1" parent="9hEXAgjlc97LaG0PaVdf-43">
          <mxGeometry y="240" width="140" height="30" as="geometry" />
        </mxCell>
        <mxCell id="9hEXAgjlc97LaG0PaVdf-51" value="Info Financeira" style="text;strokeColor=none;fillColor=none;align=left;verticalAlign=middle;spacingLeft=4;spacingRight=4;overflow=hidden;points=[[0,0.5],[1,0.5]];portConstraint=eastwest;rotatable=0;whiteSpace=wrap;html=1;" vertex="1" parent="9hEXAgjlc97LaG0PaVdf-43">
          <mxGeometry y="270" width="140" height="30" as="geometry" />
        </mxCell>
        <mxCell id="9hEXAgjlc97LaG0PaVdf-52" value="PRODUTO" style="swimlane;fontStyle=0;childLayout=stackLayout;horizontal=1;startSize=30;horizontalStack=0;resizeParent=1;resizeParentMax=0;resizeLast=0;collapsible=1;marginBottom=0;whiteSpace=wrap;html=1;" vertex="1" parent="Aan4vw2K8Wj1uO4sk84N-1">
          <mxGeometry x="180" y="340" width="140" height="210" as="geometry" />
        </mxCell>
        <mxCell id="9hEXAgjlc97LaG0PaVdf-53" value="ID Prod" style="text;strokeColor=none;fillColor=none;align=left;verticalAlign=middle;spacingLeft=4;spacingRight=4;overflow=hidden;points=[[0,0.5],[1,0.5]];portConstraint=eastwest;rotatable=0;whiteSpace=wrap;html=1;" vertex="1" parent="9hEXAgjlc97LaG0PaVdf-52">
          <mxGeometry y="30" width="140" height="30" as="geometry" />
        </mxCell>
        <mxCell id="9hEXAgjlc97LaG0PaVdf-58" value="ID Categoria (SVA, ALC, Principal, etc)" style="text;strokeColor=none;fillColor=none;align=left;verticalAlign=middle;spacingLeft=4;spacingRight=4;overflow=hidden;points=[[0,0.5],[1,0.5]];portConstraint=eastwest;rotatable=0;whiteSpace=wrap;html=1;" vertex="1" parent="9hEXAgjlc97LaG0PaVdf-52">
          <mxGeometry y="60" width="140" height="30" as="geometry" />
        </mxCell>
        <mxCell id="9hEXAgjlc97LaG0PaVdf-54" value="ID SKU Parceiro" style="text;strokeColor=none;fillColor=none;align=left;verticalAlign=middle;spacingLeft=4;spacingRight=4;overflow=hidden;points=[[0,0.5],[1,0.5]];portConstraint=eastwest;rotatable=0;whiteSpace=wrap;html=1;" vertex="1" parent="9hEXAgjlc97LaG0PaVdf-52">
          <mxGeometry y="90" width="140" height="30" as="geometry" />
        </mxCell>
        <mxCell id="9hEXAgjlc97LaG0PaVdf-55" value="Info Contab" style="text;strokeColor=none;fillColor=none;align=left;verticalAlign=middle;spacingLeft=4;spacingRight=4;overflow=hidden;points=[[0,0.5],[1,0.5]];portConstraint=eastwest;rotatable=0;whiteSpace=wrap;html=1;" vertex="1" parent="9hEXAgjlc97LaG0PaVdf-52">
          <mxGeometry y="120" width="140" height="30" as="geometry" />
        </mxCell>
        <mxCell id="9hEXAgjlc97LaG0PaVdf-56" value="Info Técnica" style="text;strokeColor=none;fillColor=none;align=left;verticalAlign=middle;spacingLeft=4;spacingRight=4;overflow=hidden;points=[[0,0.5],[1,0.5]];portConstraint=eastwest;rotatable=0;whiteSpace=wrap;html=1;" vertex="1" parent="9hEXAgjlc97LaG0PaVdf-52">
          <mxGeometry y="150" width="140" height="30" as="geometry" />
        </mxCell>
        <mxCell id="9hEXAgjlc97LaG0PaVdf-57" value="Info Financeira" style="text;strokeColor=none;fillColor=none;align=left;verticalAlign=middle;spacingLeft=4;spacingRight=4;overflow=hidden;points=[[0,0.5],[1,0.5]];portConstraint=eastwest;rotatable=0;whiteSpace=wrap;html=1;" vertex="1" parent="9hEXAgjlc97LaG0PaVdf-52">
          <mxGeometry y="180" width="140" height="30" as="geometry" />
        </mxCell>
      </root>
    </mxGraphModel>
  </diagram>
</mxfile>
